<?xml version="1.0" encoding="utf-8"?>
<!-- Generator: Adobe Illustrator 27.0.1, SVG Export Plug-In . SVG Version: 6.00 Build 0)  -->
<svg version="1.1" id="Capa_1" xmlns="http://www.w3.org/2000/svg" xmlns:xlink="http://www.w3.org/1999/xlink" x="0px" y="0px"
	 viewBox="0 0 30 30" style="enable-background:new 0 0 30 30;" xml:space="preserve">
<style type="text/css">
	.st0{fill-rule:evenodd;clip-rule:evenodd;fill:#614AD9;}
</style>
<path class="st0" d="M19,6h-8c-2.8,0-5,2.2-5,5v8c0,2.8,2.2,5,5,5h8c2.8,0,5-2.2,5-5v-8C24,8.2,21.8,6,19,6z M22.2,19
	c0,1.8-1.5,3.2-3.2,3.2h-8c-1.8,0-3.2-1.5-3.2-3.2v-8c0-1.8,1.5-3.2,3.2-3.2h8c1.8,0,3.2,1.5,3.2,3.2V19z M19.8,11.2
	c0.6,0,1-0.4,1-1s-0.4-1-1-1s-1,0.4-1,1S19.2,11.2,19.8,11.2z M15,10.5c-2.5,0-4.5,2-4.5,4.5s2,4.5,4.5,4.5s4.5-2,4.5-4.5
	c0-1.2-0.5-2.3-1.3-3.2S16.2,10.5,15,10.5z M12.2,15c0,1.5,1.2,2.8,2.8,2.8s2.8-1.2,2.8-2.8s-1.2-2.8-2.8-2.8S12.2,13.5,12.2,15z"/>
</svg>
