<?xml version="1.0" encoding="utf-8"?>
<!-- Generator: Adobe Illustrator 27.0.1, SVG Export Plug-In . SVG Version: 6.00 Build 0)  -->
<svg version="1.1" id="Capa_1" xmlns="http://www.w3.org/2000/svg" xmlns:xlink="http://www.w3.org/1999/xlink" x="0px" y="0px"
	 viewBox="0 0 30 30" style="enable-background:new 0 0 30 30;" xml:space="preserve">
<style type="text/css">
	.st0{fill:#FAF9FF;}
</style>
<path class="st0" d="M25,9.8c-0.5,0.6-1,1.2-1.7,1.7c0,0.2,0,0.3,0,0.5c0,3.1-1.2,6-3.3,8.2s-4.9,3.4-7.9,3.3
	c-1.7,0-3.4-0.4-4.9-1.2c-0.1,0-0.1-0.1-0.1-0.2V22c0-0.1,0.1-0.2,0.2-0.2c1.7-0.1,3.3-0.7,4.6-1.7c-1.5,0-2.9-1-3.5-2.4
	c0-0.1,0-0.2,0-0.2c0-0.1,0.1-0.1,0.2-0.1c0.5,0,0.9,0,1.4-0.1c-1.7-0.4-2.9-1.8-3.1-3.6c0-0.1,0-0.2,0.1-0.2s0.2-0.1,0.2,0
	c0.4,0.2,0.9,0.3,1.4,0.3c-1.5-1-2.1-2.9-1.5-4.6C7.2,9,7.3,8.9,7.5,8.9s0.3,0,0.5,0.2c2,2.2,4.7,3.5,7.6,3.6
	c-0.1-0.3-0.1-0.6-0.1-0.9c0-1.7,1-3.1,2.5-3.7c1.5-0.6,3.2-0.2,4.3,1C23,9,23.8,8.7,24.4,8.3c0,0,0.1,0,0.2,0c0,0.1,0,0.1,0,0.2
	c-0.3,0.8-0.9,1.4-1.6,1.9c0.6-0.1,1.2-0.2,1.8-0.5C24.8,9.9,24.9,9.9,25,9.8l0.1,0.2L25,9.8z"/>
</svg>
