<?xml version="1.0" encoding="utf-8"?>
<!-- Generator: Adobe Illustrator 27.0.1, SVG Export Plug-In . SVG Version: 6.00 Build 0)  -->
<svg version="1.1" id="Capa_1" xmlns="http://www.w3.org/2000/svg" xmlns:xlink="http://www.w3.org/1999/xlink" x="0px" y="0px"
	 viewBox="0 0 30 30" style="enable-background:new 0 0 30 30;" xml:space="preserve">
<style type="text/css">
	.st0{fill-rule:evenodd;clip-rule:evenodd;fill:#614AD9;}
</style>
<path class="st0" d="M8,6h14c1.1,0,2,0.9,2,2v14c0,1.1-0.9,2-2,2H8c-1.1,0-2-0.9-2-2V8C6,6.9,6.9,6,8,6z M11,21
	c0.3,0,0.5-0.2,0.5-0.5v-7c0-0.3-0.2-0.5-0.5-0.5H9.5C9.2,13,9,13.2,9,13.5v7C9,20.8,9.2,21,9.5,21H11z M10.2,12
	c-0.8,0-1.5-0.7-1.5-1.5S9.4,9,10.2,9s1.5,0.7,1.5,1.5S11.1,12,10.2,12z M20.5,21c0.3,0,0.5-0.2,0.5-0.5v-4.6c0-1.6-1.1-2.9-2.7-3.1
	c-1.1-0.1-2.2,0.4-2.8,1.3v-0.6c0-0.3-0.2-0.5-0.5-0.5h-1.5c-0.3,0-0.5,0.2-0.5,0.5v7c0,0.3,0.2,0.5,0.5,0.5H15
	c0.3,0,0.5-0.2,0.5-0.5v-3.8c0-0.8,0.7-1.5,1.5-1.5s1.5,0.7,1.5,1.5v3.8c0,0.3,0.2,0.5,0.5,0.5H20.5z"/>
</svg>
